<?xml version="1.0" encoding="UTF-8"?>
<svg xmlns="http://www.w3.org/2000/svg" viewBox="0 0 256 256" role="img">
  <title>Pet Cat Danger</title>
  <path d="M69,123C57,105 57,78 70,58L78,28L104,48C119,41 137,41 152,48L178,28L186,58C199,79 199,105 187,123C202,143 207,168 202,205H170L165,169L159,211H97L91,169L86,205H54C49,168 54,143 69,123Z" fill="#159FDE" stroke="#080808" stroke-width="8" stroke-linecap="round" stroke-linejoin="round"/>
  <path d="M78,28L104,48L70,58Z" fill="#159FDE" stroke="#080808" stroke-width="7" stroke-linecap="round" stroke-linejoin="round"/>
  <path d="M178,28L152,48L186,58Z" fill="#159FDE" stroke="#080808" stroke-width="7" stroke-linecap="round" stroke-linejoin="round"/>
  <path d="M95,205V169M128,210V172M161,205V169" fill="#00000000" stroke="#080808" stroke-width="7" stroke-linecap="round" stroke-linejoin="round"/>
  <path d="M54,190C22,203 20,169 38,161" fill="#00000000" stroke="#080808" stroke-width="8" stroke-linecap="round" stroke-linejoin="round"/>
  <path d="M92,115H66M92,124H64M164,115H190M164,124H192" fill="#00000000" stroke="#080808" stroke-width="4" stroke-linecap="round" stroke-linejoin="round"/>
  <path d="M99,94l18,-5M139,89l18,5" fill="#00000000" stroke="#0A0A0A" stroke-width="5" stroke-linecap="round" stroke-linejoin="round"/>
  <path d="M103,102a6,8 0,1 0,12 0a6,8 0,1 0,-12 0M143,102a6,8 0,1 0,12 0a6,8 0,1 0,-12 0" fill="#0A0A0A"/>
  <path d="M122,113l6,5l6,-5z" fill="#0A0A0A"/>
  <path d="M111,137c9,-16 25,-16 34,0" fill="#00000000" stroke="#0A0A0A" stroke-width="5" stroke-linecap="round" stroke-linejoin="round"/>
  <path d="M185,62v25M185,96v2" fill="#00000000" stroke="#F6C445" stroke-width="7" stroke-linecap="round" stroke-linejoin="round"/>
</svg>
